<svg xmlns="http://www.w3.org/2000/svg" viewBox="0 0 156.87 32.01"><defs><style>.cls-1{fill:#fff;}</style></defs><title>Artboard 81</title><g id="Layer_1" data-name="Layer 1"><path class="cls-1" d="M51.94,32V.56h6.92V32Z"/><path class="cls-1" d="M86.35,32,79.3,21.23,72.2,32H64.34l11-16L64.79.56h8.09l6.6,10.2L86.12.56H94L83.47,15.93,94.43,32Z"/><path class="cls-1" d="M99.6,32V.56h23.72V6.72H106.47V13.1h14.82v6.15H106.47v6.6h17.07V32Z"/><path class="cls-1" d="M148.78,32,142,21.94h-5.44V32h-6.92V.56h14.37c7.41,0,11.86,3.91,11.86,10.38V11a9.76,9.76,0,0,1-6.74,9.75L156.87,32Zm.13-20.71c0-3-2.07-4.49-5.43-4.49h-6.87v9h7c3.37,0,5.3-1.8,5.3-4.45Z"/><path class="cls-1" d="M40,32h7c0-17.65-10.53-32-23.47-32S0,14.36,0,32H7c0-9.45,3.67-18.16,8.91-22.58C13.36,17.48,13.17,28.77,13.17,32h7c0-12,1.88-21.18,3.33-24.29C24.92,10.82,26.8,20,26.8,32h7c0-3.24-.19-14.53-2.71-22.58C36.3,13.85,40,22.56,40,32Z"/></g></svg>