<?xml version="1.0" standalone="no"?>
<!DOCTYPE svg PUBLIC "-//W3C//DTD SVG 1.1//EN" "http://www.w3.org/Graphics/SVG/1.1/DTD/svg11.dtd">
<svg version="1.1" id="Layer_1" xmlns="http://www.w3.org/2000/svg" xmlns:xlink="http://www.w3.org/1999/xlink" x="0px" y="0px" width="100%" height="32px" viewBox="0 0 272.1 32" style="enable-background:new 0 0 272.1 32;" xml:space="preserve">
  <style type="text/css">
    .st0{fill:#FFFFFF;}
  </style>
  <g>
    <g>
      <g>
        <g>
          <path class="st0" d="M168.6,15v0.9h2.1v0.9h-2.1v1.7h-1v-4.4h3.4V15H168.6z"/>
          <path class="st0" d="M173.9,18.6c-1.4,0-2.3-1-2.3-2.3v0c0-1.3,1-2.3,2.4-2.3c1.4,0,2.3,1,2.3,2.3v0
            C176.3,17.5,175.3,18.6,173.9,18.6z M175.2,16.3c0-0.8-0.6-1.4-1.3-1.4c-0.8,0-1.3,0.6-1.3,1.4v0c0,0.8,0.6,1.4,1.3,1.4
            C174.7,17.7,175.2,17.1,175.2,16.3L175.2,16.3z"/>
          <path class="st0" d="M179.8,18.5l-0.9-1.4h-0.8v1.4h-1v-4.4h2c1,0,1.7,0.5,1.7,1.5v0c0,0.7-0.4,1.2-0.9,1.4l1.1,1.6H179.8z
             M179.8,15.6c0-0.4-0.3-0.6-0.8-0.6h-1v1.3h1C179.6,16.2,179.8,16,179.8,15.6L179.8,15.6z"/>
          <path class="st0" d="M181.6,16.1v-1h1v1H181.6z M181.6,18.5v-1h1v1H181.6z"/>
        </g>
        <g>
          <g>
            <path class="st0" d="M199.8,14.6l8.3,2.1c1.4-0.6,2.3-1.3,2.3-2.1v-3.3c0-1.8-4.8-3.3-10.6-3.3c-5.9,0-10.6,1.5-10.6,3.3v3.3
              c0,1.8,4.8,3.3,10.6,3.3V14.6z"/>
            <g>
              <path class="st0" d="M208.1,20l-8.3-2.1v3.3l8.3,2.1c1.4-0.6,2.3-1.3,2.3-2.1c0-0.7,0-2.6,0-3.3
                C210.4,18.7,209.6,19.4,208.1,20z"/>
              <path class="st0" d="M189.1,17.9c0,0.7,0,2.6,0,3.3c0,1.8,4.8,3.3,10.6,3.3v-3.3C193.9,21.3,189.1,19.8,189.1,17.9z"/>
            </g>
          </g>
          <g>
            <path class="st0" d="M219.6,21c-2.6,0-4.5-2-4.5-4.5v0c0-2.5,1.9-4.6,4.6-4.6c1.7,0,2.7,0.6,3.5,1.4l-1.2,1.4
              c-0.7-0.6-1.4-1-2.3-1c-1.5,0-2.6,1.2-2.6,2.7v0c0,1.5,1,2.8,2.6,2.8c1,0,1.6-0.4,2.3-1l1.2,1.2C222.3,20.4,221.3,21,219.6,21z
              "/>
            <path class="st0" d="M228.5,20.8v-0.7c-0.5,0.5-1.1,0.9-2,0.9c-1.3,0-2.3-0.7-2.3-2.1v0c0-1.5,1.1-2.2,2.7-2.2
              c0.7,0,1.2,0.1,1.7,0.3v-0.1c0-0.8-0.5-1.2-1.5-1.2c-0.7,0-1.2,0.1-1.9,0.4l-0.5-1.5c0.7-0.3,1.5-0.5,2.6-0.5
              c2.1,0,3,1.1,3,2.9v3.9H228.5z M228.5,18.1c-0.3-0.2-0.8-0.3-1.2-0.3c-0.8,0-1.3,0.3-1.3,0.9v0c0,0.5,0.4,0.8,1,0.8
              c0.9,0,1.5-0.5,1.5-1.2V18.1z"/>
            <path class="st0" d="M236.3,20.8l-1.8-2.8l-0.7,0.7v2.1H232v-9.2h1.9v4.9l2.2-2.5h2.3l-2.6,2.7l2.7,4.1H236.3z"/>
            <path class="st0" d="M245.4,18.1h-4.7c0.2,0.9,0.8,1.3,1.7,1.3c0.6,0,1.1-0.2,1.6-0.7l1.1,1c-0.6,0.8-1.5,1.3-2.8,1.3
              c-2,0-3.5-1.4-3.5-3.5v0c0-1.9,1.4-3.5,3.3-3.5c2.3,0,3.3,1.8,3.3,3.7v0C245.4,17.8,245.4,17.9,245.4,18.1z M242.2,15.5
              c-0.8,0-1.3,0.6-1.5,1.4h2.9C243.5,16,243,15.5,242.2,15.5z"/>
            <path class="st0" d="M250.5,18.2H249v2.6h-1.9V12h3.6c2.1,0,3.4,1.2,3.4,3.1v0C254.1,17.1,252.5,18.2,250.5,18.2z M252.1,15.1
              c0-0.9-0.6-1.3-1.6-1.3H249v2.7h1.5C251.5,16.4,252.1,15.9,252.1,15.1L252.1,15.1z"/>
            <path class="st0" d="M261,20.8v-3.5h-3.6v3.5h-1.9V12h1.9v3.5h3.6V12h1.9v8.8H261z"/>
            <path class="st0" d="M268.5,18.2H267v2.6h-1.9V12h3.6c2.1,0,3.4,1.2,3.4,3.1v0C272.1,17.1,270.5,18.2,268.5,18.2z M270.1,15.1
              c0-0.9-0.6-1.3-1.6-1.3H267v2.7h1.5C269.5,16.4,270.1,15.9,270.1,15.1L270.1,15.1z"/>
          </g>
        </g>
      </g>
    </g>
    <path class="st0" d="M51.9,32V0.6h6.9V32H51.9z"/>
    <path class="st0" d="M86.3,32l-7.1-10.8L72.2,32h-7.9l11-16L64.8,0.6h8.1l6.6,10.2l6.6-10.2H94L83.5,15.9l11,16.1H86.3z"/>
    <path class="st0" d="M99.6,32V0.6h23.7v6.2h-16.8v6.4h14.8v6.2h-14.8v6.6h17.1V32H99.6z"/>
    <path class="st0" d="M148.8,32L142,21.9h-5.4V32h-6.9V0.6h14.4c7.4,0,11.9,3.9,11.9,10.4V11c0,5.1-2.7,8.3-6.7,9.7l7.7,11.2H148.8z
       M148.9,11.3c0-3-2.1-4.5-5.4-4.5h-6.9v9h7C147,15.8,148.9,14,148.9,11.3L148.9,11.3z"/>
    <path class="st0" d="M40,32h7c0-17.6-10.5-32-23.5-32C10.5,0,0,14.4,0,32h7c0-9.5,3.7-18.2,8.9-22.6c-2.5,8.1-2.7,19.3-2.7,22.6h7
      c0-12,1.9-21.2,3.3-24.3c1.5,3.1,3.3,12.3,3.3,24.3h7c0-3.2-0.2-14.5-2.7-22.6C36.3,13.8,40,22.6,40,32z"/>
  </g>
</svg>
